<mxfile host="app.diagrams.net" agent="Mozilla/5.0 (Windows NT 10.0; Win64; x64) AppleWebKit/537.36 (KHTML, like Gecko) Chrome/131.0.0.0 Safari/537.36" version="25.0.3">
  <diagram name="Page-1" id="oGhhzxB5nDTm9byogRpp">
    <mxGraphModel dx="1500" dy="757" grid="1" gridSize="10" guides="1" tooltips="1" connect="1" arrows="1" fold="1" page="1" pageScale="1" pageWidth="827" pageHeight="1169" math="0" shadow="0">
      <root>
        <mxCell id="0" />
        <mxCell id="1" parent="0" />
        <mxCell id="UyEMsNSbZ2E84zphNSvk-57" value="" style="ellipse;whiteSpace=wrap;html=1;" vertex="1" parent="1">
          <mxGeometry x="174" y="180" width="100" height="60" as="geometry" />
        </mxCell>
        <mxCell id="UyEMsNSbZ2E84zphNSvk-38" value="" style="ellipse;whiteSpace=wrap;html=1;" vertex="1" parent="1">
          <mxGeometry x="472.5" y="720" width="110" height="70" as="geometry" />
        </mxCell>
        <mxCell id="UyEMsNSbZ2E84zphNSvk-27" value="" style="ellipse;whiteSpace=wrap;html=1;" vertex="1" parent="1">
          <mxGeometry x="970" y="230" width="100" height="60" as="geometry" />
        </mxCell>
        <mxCell id="UyEMsNSbZ2E84zphNSvk-15" value="" style="ellipse;whiteSpace=wrap;html=1;" vertex="1" parent="1">
          <mxGeometry x="174" y="100" width="100" height="60" as="geometry" />
        </mxCell>
        <mxCell id="UyEMsNSbZ2E84zphNSvk-2" value="&lt;span style=&quot;font-size:11.0pt;line-height:&lt;br/&gt;115%;font-family:&amp;quot;Arial&amp;quot;,sans-serif;mso-fareast-font-family:Arial;mso-ansi-language:&lt;br/&gt;EN-GB;mso-fareast-language:EN-US;mso-bidi-language:AR-SA&quot; lang=&quot;EN-GB&quot;&gt;title&lt;/span&gt;" style="ellipse;whiteSpace=wrap;html=1;" vertex="1" parent="1">
          <mxGeometry x="284" y="120" width="80" height="40" as="geometry" />
        </mxCell>
        <mxCell id="UyEMsNSbZ2E84zphNSvk-3" value="&lt;span style=&quot;font-size:11.0pt;line-height:&lt;br/&gt;115%;font-family:&amp;quot;Arial&amp;quot;,sans-serif;mso-fareast-font-family:Arial;mso-ansi-language:&lt;br/&gt;EN-GB;mso-fareast-language:EN-US;mso-bidi-language:AR-SA&quot; lang=&quot;EN-GB&quot;&gt;authors&lt;/span&gt;" style="ellipse;whiteSpace=wrap;html=1;" vertex="1" parent="1">
          <mxGeometry x="184" y="110" width="80" height="40" as="geometry" />
        </mxCell>
        <mxCell id="UyEMsNSbZ2E84zphNSvk-4" value="&lt;span style=&quot;font-size:11.0pt;line-height:&lt;br/&gt;115%;font-family:&amp;quot;Arial&amp;quot;,sans-serif;mso-fareast-font-family:Arial;mso-ansi-language:&lt;br/&gt;EN-GB;mso-fareast-language:EN-US;mso-bidi-language:AR-SA&quot; lang=&quot;EN-GB&quot;&gt;publisher&lt;/span&gt;" style="ellipse;whiteSpace=wrap;html=1;" vertex="1" parent="1">
          <mxGeometry x="74" y="120" width="80" height="40" as="geometry" />
        </mxCell>
        <mxCell id="UyEMsNSbZ2E84zphNSvk-5" value="&lt;span style=&quot;font-size:11.0pt;line-height:&lt;br/&gt;115%;font-family:&amp;quot;Arial&amp;quot;,sans-serif;mso-fareast-font-family:Arial;mso-ansi-language:&lt;br/&gt;EN-GB;mso-fareast-language:EN-US;mso-bidi-language:AR-SA&quot; lang=&quot;EN-GB&quot;&gt;year published&lt;/span&gt;" style="ellipse;whiteSpace=wrap;html=1;" vertex="1" parent="1">
          <mxGeometry x="29" y="180" width="80" height="60" as="geometry" />
        </mxCell>
        <mxCell id="UyEMsNSbZ2E84zphNSvk-6" value="&lt;span style=&quot;font-size:11.0pt;line-height:&lt;br/&gt;115%;font-family:&amp;quot;Arial&amp;quot;,sans-serif;mso-fareast-font-family:Arial;mso-ansi-language:&lt;br/&gt;EN-GB;mso-fareast-language:EN-US;mso-bidi-language:AR-SA&quot; lang=&quot;EN-GB&quot;&gt;series information&lt;/span&gt;" style="ellipse;whiteSpace=wrap;html=1;" vertex="1" parent="1">
          <mxGeometry x="24" y="250" width="90" height="50" as="geometry" />
        </mxCell>
        <mxCell id="UyEMsNSbZ2E84zphNSvk-8" value="" style="endArrow=none;html=1;rounded=0;exitX=1;exitY=0.5;exitDx=0;exitDy=0;entryX=0.064;entryY=0.737;entryDx=0;entryDy=0;entryPerimeter=0;" edge="1" parent="1" source="UyEMsNSbZ2E84zphNSvk-6" target="UyEMsNSbZ2E84zphNSvk-57">
          <mxGeometry width="50" height="50" relative="1" as="geometry">
            <mxPoint x="124" y="270" as="sourcePoint" />
            <mxPoint x="174" y="220" as="targetPoint" />
          </mxGeometry>
        </mxCell>
        <mxCell id="UyEMsNSbZ2E84zphNSvk-9" value="" style="endArrow=none;html=1;rounded=0;entryX=0;entryY=0;entryDx=0;entryDy=0;exitX=1;exitY=1;exitDx=0;exitDy=0;" edge="1" parent="1" source="UyEMsNSbZ2E84zphNSvk-4">
          <mxGeometry width="50" height="50" relative="1" as="geometry">
            <mxPoint x="144" y="160" as="sourcePoint" />
            <mxPoint x="174" y="200" as="targetPoint" />
          </mxGeometry>
        </mxCell>
        <mxCell id="UyEMsNSbZ2E84zphNSvk-10" value="" style="endArrow=none;html=1;rounded=0;exitX=1;exitY=0.5;exitDx=0;exitDy=0;" edge="1" parent="1" source="UyEMsNSbZ2E84zphNSvk-5">
          <mxGeometry width="50" height="50" relative="1" as="geometry">
            <mxPoint x="108" y="206" as="sourcePoint" />
            <mxPoint x="174" y="213.09523809523807" as="targetPoint" />
          </mxGeometry>
        </mxCell>
        <mxCell id="UyEMsNSbZ2E84zphNSvk-12" value="" style="endArrow=none;html=1;rounded=0;exitX=1;exitY=1;exitDx=0;exitDy=0;entryX=0.5;entryY=0;entryDx=0;entryDy=0;" edge="1" parent="1" target="UyEMsNSbZ2E84zphNSvk-57">
          <mxGeometry width="50" height="50" relative="1" as="geometry">
            <mxPoint x="222" y="160" as="sourcePoint" />
            <mxPoint x="224" y="180" as="targetPoint" />
          </mxGeometry>
        </mxCell>
        <mxCell id="UyEMsNSbZ2E84zphNSvk-13" value="" style="endArrow=none;html=1;rounded=0;entryX=1;entryY=0;entryDx=0;entryDy=0;" edge="1" parent="1" target="UyEMsNSbZ2E84zphNSvk-57">
          <mxGeometry width="50" height="50" relative="1" as="geometry">
            <mxPoint x="296" y="154" as="sourcePoint" />
            <mxPoint x="264" y="190" as="targetPoint" />
          </mxGeometry>
        </mxCell>
        <mxCell id="UyEMsNSbZ2E84zphNSvk-16" value="&lt;span style=&quot;font-size:11.0pt;line-height:&lt;br/&gt;115%;font-family:&amp;quot;Arial&amp;quot;,sans-serif;mso-fareast-font-family:Arial;mso-ansi-language:&lt;br/&gt;EN-GB;mso-fareast-language:EN-US;mso-bidi-language:AR-SA&quot; lang=&quot;EN-GB&quot;&gt;category&amp;nbsp;&lt;/span&gt;" style="ellipse;whiteSpace=wrap;html=1;" vertex="1" parent="1">
          <mxGeometry x="124" y="280" width="90" height="50" as="geometry" />
        </mxCell>
        <mxCell id="UyEMsNSbZ2E84zphNSvk-17" value="" style="endArrow=none;html=1;rounded=0;exitX=0.5;exitY=0;exitDx=0;exitDy=0;entryX=0;entryY=1;entryDx=0;entryDy=0;" edge="1" parent="1" source="UyEMsNSbZ2E84zphNSvk-16" target="UyEMsNSbZ2E84zphNSvk-57">
          <mxGeometry width="50" height="50" relative="1" as="geometry">
            <mxPoint x="158" y="276" as="sourcePoint" />
            <mxPoint x="194" y="230" as="targetPoint" />
          </mxGeometry>
        </mxCell>
        <mxCell id="UyEMsNSbZ2E84zphNSvk-18" value="&lt;span style=&quot;font-size:11.0pt;line-height:&lt;br/&gt;115%;font-family:&amp;quot;Arial&amp;quot;,sans-serif;mso-fareast-font-family:Arial;mso-ansi-language:&lt;br/&gt;EN-GB;mso-fareast-language:EN-US;mso-bidi-language:AR-SA&quot; lang=&quot;EN-GB&quot;&gt;Fiction&lt;/span&gt;" style="ellipse;whiteSpace=wrap;html=1;" vertex="1" parent="1">
          <mxGeometry x="24" y="350" width="80" height="50" as="geometry" />
        </mxCell>
        <mxCell id="UyEMsNSbZ2E84zphNSvk-19" value="&lt;span style=&quot;font-size:11.0pt;line-height:&lt;br/&gt;115%;font-family:&amp;quot;Arial&amp;quot;,sans-serif;mso-fareast-font-family:Arial;mso-ansi-language:&lt;br/&gt;EN-GB;mso-fareast-language:EN-US;mso-bidi-language:AR-SA&quot; lang=&quot;EN-GB&quot;&gt;Science&lt;/span&gt;" style="ellipse;whiteSpace=wrap;html=1;" vertex="1" parent="1">
          <mxGeometry x="204" y="350" width="80" height="50" as="geometry" />
        </mxCell>
        <mxCell id="UyEMsNSbZ2E84zphNSvk-20" value="&lt;span style=&quot;font-size:11.0pt;line-height:&lt;br/&gt;115%;font-family:&amp;quot;Arial&amp;quot;,sans-serif;mso-fareast-font-family:Arial;mso-ansi-language:&lt;br/&gt;EN-GB;mso-fareast-language:EN-US;mso-bidi-language:AR-SA&quot; lang=&quot;EN-GB&quot;&gt;Non-Fiction&lt;/span&gt;" style="ellipse;whiteSpace=wrap;html=1;" vertex="1" parent="1">
          <mxGeometry x="114" y="350" width="80" height="50" as="geometry" />
        </mxCell>
        <mxCell id="UyEMsNSbZ2E84zphNSvk-21" value="&lt;span style=&quot;font-size:11.0pt;line-height:&lt;br/&gt;115%;font-family:&amp;quot;Arial&amp;quot;,sans-serif;mso-fareast-font-family:Arial;mso-ansi-language:&lt;br/&gt;EN-GB;mso-fareast-language:EN-US;mso-bidi-language:AR-SA&quot; lang=&quot;EN-GB&quot;&gt;members&amp;nbsp;&lt;/span&gt;" style="rounded=0;whiteSpace=wrap;html=1;" vertex="1" parent="1">
          <mxGeometry x="950" y="320" width="110" height="40" as="geometry" />
        </mxCell>
        <mxCell id="UyEMsNSbZ2E84zphNSvk-22" value="&lt;span style=&quot;font-size:11.0pt;line-height:&lt;br/&gt;115%;font-family:&amp;quot;Arial&amp;quot;,sans-serif;mso-fareast-font-family:Arial;mso-ansi-language:&lt;br/&gt;EN-GB;mso-fareast-language:EN-US;mso-bidi-language:AR-SA&quot; lang=&quot;EN-GB&quot;&gt;name&lt;/span&gt;" style="ellipse;whiteSpace=wrap;html=1;" vertex="1" parent="1">
          <mxGeometry x="880" y="250" width="70" height="40" as="geometry" />
        </mxCell>
        <mxCell id="UyEMsNSbZ2E84zphNSvk-23" value="" style="endArrow=none;html=1;rounded=0;exitX=0.72;exitY=0.045;exitDx=0;exitDy=0;exitPerimeter=0;" edge="1" parent="1" source="UyEMsNSbZ2E84zphNSvk-18">
          <mxGeometry width="50" height="50" relative="1" as="geometry">
            <mxPoint x="74" y="320" as="sourcePoint" />
            <mxPoint x="139" y="323" as="targetPoint" />
          </mxGeometry>
        </mxCell>
        <mxCell id="UyEMsNSbZ2E84zphNSvk-24" value="" style="endArrow=none;html=1;rounded=0;exitX=0.5;exitY=0;exitDx=0;exitDy=0;" edge="1" parent="1" source="UyEMsNSbZ2E84zphNSvk-20">
          <mxGeometry width="50" height="50" relative="1" as="geometry">
            <mxPoint x="104" y="359" as="sourcePoint" />
            <mxPoint x="161" y="330" as="targetPoint" />
          </mxGeometry>
        </mxCell>
        <mxCell id="UyEMsNSbZ2E84zphNSvk-25" value="" style="endArrow=none;html=1;rounded=0;entryX=0;entryY=0;entryDx=0;entryDy=0;exitX=1;exitY=1;exitDx=0;exitDy=0;" edge="1" parent="1" source="UyEMsNSbZ2E84zphNSvk-16" target="UyEMsNSbZ2E84zphNSvk-19">
          <mxGeometry width="50" height="50" relative="1" as="geometry">
            <mxPoint x="204" y="314" as="sourcePoint" />
            <mxPoint x="254" y="290.5" as="targetPoint" />
          </mxGeometry>
        </mxCell>
        <mxCell id="UyEMsNSbZ2E84zphNSvk-26" value="&lt;span style=&quot;font-size:11.0pt;line-height:&lt;br/&gt;115%;font-family:&amp;quot;Arial&amp;quot;,sans-serif;mso-fareast-font-family:Arial;mso-ansi-language:&lt;br/&gt;EN-GB;mso-fareast-language:EN-US;mso-bidi-language:AR-SA&quot; lang=&quot;EN-GB&quot;&gt;address&lt;/span&gt;" style="ellipse;whiteSpace=wrap;html=1;" vertex="1" parent="1">
          <mxGeometry x="980" y="240" width="80" height="40" as="geometry" />
        </mxCell>
        <mxCell id="UyEMsNSbZ2E84zphNSvk-28" value="&lt;span style=&quot;font-size:11.0pt;line-height:&lt;br/&gt;115%;font-family:&amp;quot;Arial&amp;quot;,sans-serif;mso-fareast-font-family:Arial;mso-ansi-language:&lt;br/&gt;EN-GB;mso-fareast-language:EN-US;mso-bidi-language:AR-SA&quot; lang=&quot;EN-GB&quot;&gt;phone number&lt;/span&gt;" style="ellipse;whiteSpace=wrap;html=1;" vertex="1" parent="1">
          <mxGeometry x="1072" y="280" width="70" height="40" as="geometry" />
        </mxCell>
        <mxCell id="UyEMsNSbZ2E84zphNSvk-29" value="&lt;span style=&quot;font-size:11.0pt;line-height:&lt;br/&gt;115%;font-family:&amp;quot;Arial&amp;quot;,sans-serif;mso-fareast-font-family:Arial;mso-ansi-language:&lt;br/&gt;EN-GB;mso-fareast-language:EN-US;mso-bidi-language:AR-SA&quot; lang=&quot;EN-GB&quot;&gt;date joined&lt;/span&gt;" style="ellipse;whiteSpace=wrap;html=1;" vertex="1" parent="1">
          <mxGeometry x="1045" y="380" width="85" height="40" as="geometry" />
        </mxCell>
        <mxCell id="UyEMsNSbZ2E84zphNSvk-30" value="&lt;span style=&quot;font-size:11.0pt;line-height:&lt;br/&gt;115%;font-family:&amp;quot;Arial&amp;quot;,sans-serif;mso-fareast-font-family:Arial;mso-ansi-language:&lt;br/&gt;EN-GB;mso-fareast-language:EN-US;mso-bidi-language:AR-SA&quot; lang=&quot;EN-GB&quot;&gt;borrow&amp;nbsp;&lt;/span&gt;" style="rhombus;whiteSpace=wrap;html=1;" vertex="1" parent="1">
          <mxGeometry x="590" y="235" width="80" height="80" as="geometry" />
        </mxCell>
        <mxCell id="UyEMsNSbZ2E84zphNSvk-31" value="&lt;span style=&quot;font-size:11.0pt;line-height:&lt;br/&gt;115%;font-family:&amp;quot;Arial&amp;quot;,sans-serif;mso-fareast-font-family:Arial;mso-ansi-language:&lt;br/&gt;EN-GB;mso-fareast-language:EN-US;mso-bidi-language:AR-SA&quot; lang=&quot;EN-GB&quot;&gt;borrow date&lt;/span&gt;" style="ellipse;whiteSpace=wrap;html=1;" vertex="1" parent="1">
          <mxGeometry x="590" y="175" width="80" height="40" as="geometry" />
        </mxCell>
        <mxCell id="UyEMsNSbZ2E84zphNSvk-32" value="&lt;span style=&quot;font-size:11.0pt;line-height:&lt;br/&gt;115%;font-family:&amp;quot;Arial&amp;quot;,sans-serif;mso-fareast-font-family:Arial;mso-ansi-language:&lt;br/&gt;EN-GB;mso-fareast-language:EN-US;mso-bidi-language:AR-SA&quot; lang=&quot;EN-GB&quot;&gt;return date&lt;/span&gt;" style="ellipse;whiteSpace=wrap;html=1;" vertex="1" parent="1">
          <mxGeometry x="540" y="335" width="80" height="40" as="geometry" />
        </mxCell>
        <mxCell id="UyEMsNSbZ2E84zphNSvk-33" value="&lt;span style=&quot;font-size:11.0pt;line-height:&lt;br/&gt;115%;font-family:&amp;quot;Arial&amp;quot;,sans-serif;mso-fareast-font-family:Arial;mso-ansi-language:&lt;br/&gt;EN-GB;mso-fareast-language:EN-US;mso-bidi-language:AR-SA&quot; lang=&quot;EN-GB&quot;&gt;librarian&amp;nbsp;&lt;/span&gt;" style="ellipse;whiteSpace=wrap;html=1;" vertex="1" parent="1">
          <mxGeometry x="650" y="335" width="80" height="40" as="geometry" />
        </mxCell>
        <mxCell id="UyEMsNSbZ2E84zphNSvk-34" value="&lt;span style=&quot;font-size:11.0pt;line-height:&lt;br/&gt;115%;font-family:&amp;quot;Arial&amp;quot;,sans-serif;mso-fareast-font-family:Arial;mso-ansi-language:&lt;br/&gt;EN-GB;mso-fareast-language:EN-US;mso-bidi-language:AR-SA&quot; lang=&quot;EN-GB&quot;&gt;employees&amp;nbsp;&lt;/span&gt;" style="rounded=0;whiteSpace=wrap;html=1;" vertex="1" parent="1">
          <mxGeometry x="352.5" y="690" width="80" height="30" as="geometry" />
        </mxCell>
        <mxCell id="UyEMsNSbZ2E84zphNSvk-35" value="&lt;span style=&quot;font-size:11.0pt;line-height:&lt;br/&gt;115%;font-family:&amp;quot;Arial&amp;quot;,sans-serif;mso-fareast-font-family:Arial;mso-ansi-language:&lt;br/&gt;EN-GB;mso-fareast-language:EN-US;mso-bidi-language:AR-SA&quot; lang=&quot;EN-GB&quot;&gt;name&lt;/span&gt;" style="ellipse;whiteSpace=wrap;html=1;" vertex="1" parent="1">
          <mxGeometry x="297.5" y="760" width="70" height="40" as="geometry" />
        </mxCell>
        <mxCell id="UyEMsNSbZ2E84zphNSvk-36" value="&lt;span style=&quot;font-size:11.0pt;line-height:&lt;br/&gt;115%;font-family:&amp;quot;Arial&amp;quot;,sans-serif;mso-fareast-font-family:Arial;mso-ansi-language:&lt;br/&gt;EN-GB;mso-fareast-language:EN-US;mso-bidi-language:AR-SA&quot; lang=&quot;EN-GB&quot;&gt;employee ID&lt;/span&gt;" style="ellipse;whiteSpace=wrap;html=1;" vertex="1" parent="1">
          <mxGeometry x="392.5" y="760" width="70" height="40" as="geometry" />
        </mxCell>
        <mxCell id="UyEMsNSbZ2E84zphNSvk-37" value="&lt;span style=&quot;font-size:11.0pt;line-height:&lt;br/&gt;115%;font-family:&amp;quot;Arial&amp;quot;,sans-serif;mso-fareast-font-family:Arial;mso-ansi-language:&lt;br/&gt;EN-GB;mso-fareast-language:EN-US;mso-bidi-language:AR-SA&quot; lang=&quot;EN-GB&quot;&gt;work shifts&lt;/span&gt;" style="ellipse;whiteSpace=wrap;html=1;" vertex="1" parent="1">
          <mxGeometry x="482.5" y="730" width="90" height="50" as="geometry" />
        </mxCell>
        <mxCell id="UyEMsNSbZ2E84zphNSvk-39" value="" style="endArrow=none;html=1;rounded=0;entryX=0;entryY=0;entryDx=0;entryDy=0;exitX=0;exitY=1;exitDx=0;exitDy=0;" edge="1" parent="1" target="UyEMsNSbZ2E84zphNSvk-21">
          <mxGeometry width="50" height="50" relative="1" as="geometry">
            <mxPoint x="922" y="290" as="sourcePoint" />
            <mxPoint x="880" y="336" as="targetPoint" />
          </mxGeometry>
        </mxCell>
        <mxCell id="UyEMsNSbZ2E84zphNSvk-40" value="" style="endArrow=none;html=1;rounded=0;entryX=0.5;entryY=0;entryDx=0;entryDy=0;exitX=0.5;exitY=1;exitDx=0;exitDy=0;" edge="1" parent="1" source="UyEMsNSbZ2E84zphNSvk-27" target="UyEMsNSbZ2E84zphNSvk-21">
          <mxGeometry width="50" height="50" relative="1" as="geometry">
            <mxPoint x="932" y="300" as="sourcePoint" />
            <mxPoint x="960" y="330" as="targetPoint" />
          </mxGeometry>
        </mxCell>
        <mxCell id="UyEMsNSbZ2E84zphNSvk-41" value="" style="endArrow=none;html=1;rounded=0;entryX=1;entryY=0.5;entryDx=0;entryDy=0;exitX=0.5;exitY=1;exitDx=0;exitDy=0;" edge="1" parent="1" source="UyEMsNSbZ2E84zphNSvk-28" target="UyEMsNSbZ2E84zphNSvk-21">
          <mxGeometry width="50" height="50" relative="1" as="geometry">
            <mxPoint x="1030" y="300" as="sourcePoint" />
            <mxPoint x="1015" y="330" as="targetPoint" />
          </mxGeometry>
        </mxCell>
        <mxCell id="UyEMsNSbZ2E84zphNSvk-42" value="" style="endArrow=none;html=1;rounded=0;entryX=1;entryY=1;entryDx=0;entryDy=0;exitX=0.5;exitY=0;exitDx=0;exitDy=0;" edge="1" parent="1" source="UyEMsNSbZ2E84zphNSvk-29" target="UyEMsNSbZ2E84zphNSvk-21">
          <mxGeometry width="50" height="50" relative="1" as="geometry">
            <mxPoint x="1117" y="330" as="sourcePoint" />
            <mxPoint x="1070" y="350" as="targetPoint" />
          </mxGeometry>
        </mxCell>
        <mxCell id="UyEMsNSbZ2E84zphNSvk-43" value="" style="endArrow=none;html=1;rounded=0;entryX=0.5;entryY=0;entryDx=0;entryDy=0;exitX=0.5;exitY=1;exitDx=0;exitDy=0;" edge="1" parent="1" source="UyEMsNSbZ2E84zphNSvk-31" target="UyEMsNSbZ2E84zphNSvk-30">
          <mxGeometry width="50" height="50" relative="1" as="geometry">
            <mxPoint x="807" y="235" as="sourcePoint" />
            <mxPoint x="835" y="265" as="targetPoint" />
          </mxGeometry>
        </mxCell>
        <mxCell id="UyEMsNSbZ2E84zphNSvk-44" value="" style="endArrow=none;html=1;rounded=0;entryX=1;entryY=1;entryDx=0;entryDy=0;exitX=0.5;exitY=0;exitDx=0;exitDy=0;" edge="1" parent="1" source="UyEMsNSbZ2E84zphNSvk-33" target="UyEMsNSbZ2E84zphNSvk-30">
          <mxGeometry width="50" height="50" relative="1" as="geometry">
            <mxPoint x="807" y="235" as="sourcePoint" />
            <mxPoint x="835" y="265" as="targetPoint" />
          </mxGeometry>
        </mxCell>
        <mxCell id="UyEMsNSbZ2E84zphNSvk-45" value="" style="endArrow=none;html=1;rounded=0;entryX=0;entryY=1;entryDx=0;entryDy=0;exitX=0.5;exitY=0;exitDx=0;exitDy=0;" edge="1" parent="1" source="UyEMsNSbZ2E84zphNSvk-32" target="UyEMsNSbZ2E84zphNSvk-30">
          <mxGeometry width="50" height="50" relative="1" as="geometry">
            <mxPoint x="700" y="345" as="sourcePoint" />
            <mxPoint x="660" y="305" as="targetPoint" />
          </mxGeometry>
        </mxCell>
        <mxCell id="UyEMsNSbZ2E84zphNSvk-46" value="" style="endArrow=none;html=1;rounded=0;entryX=0;entryY=1;entryDx=0;entryDy=0;exitX=0.5;exitY=0;exitDx=0;exitDy=0;" edge="1" parent="1" source="UyEMsNSbZ2E84zphNSvk-35" target="UyEMsNSbZ2E84zphNSvk-34">
          <mxGeometry width="50" height="50" relative="1" as="geometry">
            <mxPoint x="342.5" y="490" as="sourcePoint" />
            <mxPoint x="372.5" y="450" as="targetPoint" />
          </mxGeometry>
        </mxCell>
        <mxCell id="UyEMsNSbZ2E84zphNSvk-47" value="" style="endArrow=none;html=1;rounded=0;entryX=0.5;entryY=1;entryDx=0;entryDy=0;exitX=0.278;exitY=0.053;exitDx=0;exitDy=0;exitPerimeter=0;" edge="1" parent="1" source="UyEMsNSbZ2E84zphNSvk-36" target="UyEMsNSbZ2E84zphNSvk-34">
          <mxGeometry width="50" height="50" relative="1" as="geometry">
            <mxPoint x="342.5" y="770" as="sourcePoint" />
            <mxPoint x="362.5" y="730" as="targetPoint" />
          </mxGeometry>
        </mxCell>
        <mxCell id="UyEMsNSbZ2E84zphNSvk-49" value="" style="endArrow=none;html=1;rounded=0;entryX=1;entryY=1;entryDx=0;entryDy=0;exitX=0.057;exitY=0.266;exitDx=0;exitDy=0;exitPerimeter=0;" edge="1" parent="1" source="UyEMsNSbZ2E84zphNSvk-38" target="UyEMsNSbZ2E84zphNSvk-34">
          <mxGeometry width="50" height="50" relative="1" as="geometry">
            <mxPoint x="421.5" y="772" as="sourcePoint" />
            <mxPoint x="402.5" y="730" as="targetPoint" />
          </mxGeometry>
        </mxCell>
        <mxCell id="UyEMsNSbZ2E84zphNSvk-50" value="" style="endArrow=none;html=1;rounded=0;entryX=1;entryY=0.5;entryDx=0;entryDy=0;" edge="1" parent="1" source="UyEMsNSbZ2E84zphNSvk-30" target="UyEMsNSbZ2E84zphNSvk-52">
          <mxGeometry width="50" height="50" relative="1" as="geometry">
            <mxPoint x="482" y="219" as="sourcePoint" />
            <mxPoint x="560" y="275" as="targetPoint" />
          </mxGeometry>
        </mxCell>
        <mxCell id="UyEMsNSbZ2E84zphNSvk-51" value="" style="endArrow=none;html=1;rounded=0;entryX=1;entryY=0.5;entryDx=0;entryDy=0;exitX=0;exitY=0.5;exitDx=0;exitDy=0;" edge="1" parent="1" source="UyEMsNSbZ2E84zphNSvk-21" target="UyEMsNSbZ2E84zphNSvk-30">
          <mxGeometry width="50" height="50" relative="1" as="geometry">
            <mxPoint x="635" y="122" as="sourcePoint" />
            <mxPoint x="474" y="118" as="targetPoint" />
          </mxGeometry>
        </mxCell>
        <mxCell id="UyEMsNSbZ2E84zphNSvk-52" value="&lt;span style=&quot;font-size:11.0pt;line-height:&lt;br/&gt;115%;font-family:&amp;quot;Arial&amp;quot;,sans-serif;mso-fareast-font-family:Arial;mso-ansi-language:&lt;br/&gt;EN-GB;mso-fareast-language:EN-US;mso-bidi-language:AR-SA&quot; lang=&quot;EN-GB&quot;&gt;library&lt;/span&gt;" style="rounded=0;whiteSpace=wrap;html=1;" vertex="1" parent="1">
          <mxGeometry x="400" y="260" width="80" height="30" as="geometry" />
        </mxCell>
        <mxCell id="UyEMsNSbZ2E84zphNSvk-54" value="&lt;span style=&quot;font-size:11.0pt;line-height:&lt;br/&gt;115%;font-family:&amp;quot;Arial&amp;quot;,sans-serif;mso-fareast-font-family:Arial;mso-ansi-language:&lt;br/&gt;EN-GB;mso-fareast-language:EN-US;mso-bidi-language:AR-SA&quot; lang=&quot;EN-GB&quot;&gt;books&lt;/span&gt;" style="ellipse;whiteSpace=wrap;html=1;" vertex="1" parent="1">
          <mxGeometry x="194" y="190" width="60" height="40" as="geometry" />
        </mxCell>
        <mxCell id="UyEMsNSbZ2E84zphNSvk-58" value="" style="endArrow=none;html=1;rounded=0;exitX=0.996;exitY=0.643;exitDx=0;exitDy=0;exitPerimeter=0;entryX=0;entryY=0.5;entryDx=0;entryDy=0;" edge="1" parent="1" source="UyEMsNSbZ2E84zphNSvk-57" target="UyEMsNSbZ2E84zphNSvk-52">
          <mxGeometry width="50" height="50" relative="1" as="geometry">
            <mxPoint x="284" y="210" as="sourcePoint" />
            <mxPoint x="414" y="375" as="targetPoint" />
          </mxGeometry>
        </mxCell>
        <mxCell id="UyEMsNSbZ2E84zphNSvk-60" value="Work" style="rhombus;whiteSpace=wrap;html=1;" vertex="1" parent="1">
          <mxGeometry x="352.5" y="530" width="80" height="80" as="geometry" />
        </mxCell>
        <mxCell id="UyEMsNSbZ2E84zphNSvk-61" value="" style="endArrow=none;html=1;rounded=0;exitX=0.5;exitY=0;exitDx=0;exitDy=0;entryX=0.5;entryY=1;entryDx=0;entryDy=0;" edge="1" parent="1" source="UyEMsNSbZ2E84zphNSvk-60" target="UyEMsNSbZ2E84zphNSvk-52">
          <mxGeometry width="50" height="50" relative="1" as="geometry">
            <mxPoint x="165" y="190" as="sourcePoint" />
            <mxPoint x="185" y="141" as="targetPoint" />
          </mxGeometry>
        </mxCell>
        <mxCell id="UyEMsNSbZ2E84zphNSvk-62" value="" style="endArrow=none;html=1;rounded=0;exitX=0.5;exitY=0;exitDx=0;exitDy=0;entryX=0.5;entryY=1;entryDx=0;entryDy=0;" edge="1" parent="1" source="UyEMsNSbZ2E84zphNSvk-34">
          <mxGeometry width="50" height="50" relative="1" as="geometry">
            <mxPoint x="387.5" y="775" as="sourcePoint" />
            <mxPoint x="392.5" y="610" as="targetPoint" />
          </mxGeometry>
        </mxCell>
      </root>
    </mxGraphModel>
  </diagram>
</mxfile>
